<?xml version="1.0" encoding="utf-8" standalone="no"?>
<!DOCTYPE svg PUBLIC "-//W3C//DTD SVG 1.1//EN"
  "http://www.w3.org/Graphics/SVG/1.1/DTD/svg11.dtd">
<svg xmlns:xlink="http://www.w3.org/1999/xlink" width="622.91375pt" height="395.998125pt" viewBox="0 0 622.91375 395.998125" xmlns="http://www.w3.org/2000/svg" version="1.1">
 <metadata>
  <rdf:RDF xmlns:dc="http://purl.org/dc/elements/1.1/" xmlns:cc="http://creativecommons.org/ns#" xmlns:rdf="http://www.w3.org/1999/02/22-rdf-syntax-ns#">
   <cc:Work>
    <dc:type rdf:resource="http://purl.org/dc/dcmitype/StillImage"/>
    <dc:date>2025-01-04T18:50:12.429574</dc:date>
    <dc:format>image/svg+xml</dc:format>
    <dc:creator>
     <cc:Agent>
      <dc:title>Matplotlib v3.7.2, https://matplotlib.org/</dc:title>
     </cc:Agent>
    </dc:creator>
   </cc:Work>
  </rdf:RDF>
 </metadata>
 <defs>
  <style type="text/css">*{stroke-linejoin: round; stroke-linecap: butt}</style>
 </defs>
 <g id="figure_1">
  <g id="patch_1">
   <path d="M 0 395.998125 
L 622.91375 395.998125 
L 622.91375 0 
L 0 0 
z
" style="fill: #ffffff"/>
  </g>
  <g id="axes_1">
   <g id="patch_2">
    <path d="M 57.71375 356.48 
L 615.71375 356.48 
L 615.71375 23.84 
L 57.71375 23.84 
z
" style="fill: #ffffff"/>
   </g>
   <g id="PathCollection_1">
    <defs>
     <path id="m05f807bff0" d="M -1.936492 1.936492 
L 1.936492 -1.936492 
M -1.936492 -1.936492 
L 1.936492 1.936492 
" style="stroke: #d4a00b; stroke-width: 1.5"/>
    </defs>
    <g clip-path="url(#pdbd7ef9ff3)">
     <use xlink:href="#m05f807bff0" x="246.4364" y="341.36" style="fill: #d4a00b; stroke: #d4a00b; stroke-width: 1.5"/>
    </g>
   </g>
   <g id="PathCollection_2">
    <g clip-path="url(#pdbd7ef9ff3)">
     <use xlink:href="#m05f807bff0" x="332.414829" y="341.36" style="fill: #d4a00b; stroke: #d4a00b; stroke-width: 1.5"/>
    </g>
   </g>
   <g id="PathCollection_3">
    <g clip-path="url(#pdbd7ef9ff3)">
     <use xlink:href="#m05f807bff0" x="418.393257" y="341.36" style="fill: #d4a00b; stroke: #d4a00b; stroke-width: 1.5"/>
    </g>
   </g>
   <g id="PathCollection_4">
    <g clip-path="url(#pdbd7ef9ff3)">
     <use xlink:href="#m05f807bff0" x="590.350114" y="341.36" style="fill: #d4a00b; stroke: #d4a00b; stroke-width: 1.5"/>
    </g>
   </g>
   <g id="matplotlib.axis_1">
    <g id="xtick_1">
     <g id="line2d_1">
      <path d="M 74.479544 356.48 
L 74.479544 23.84 
" clip-path="url(#pdbd7ef9ff3)" style="fill: none; stroke: #b0b0b0; stroke-width: 0.8; stroke-linecap: square"/>
     </g>
     <g id="line2d_2">
      <defs>
       <path id="m8344a0a6a2" d="M 0 0 
L 0 3.5 
" style="stroke: #000000; stroke-width: 0.8"/>
      </defs>
      <g>
       <use xlink:href="#m8344a0a6a2" x="74.479544" y="356.48" style="stroke: #000000; stroke-width: 0.8"/>
      </g>
     </g>
     <g id="text_1">
      <!-- 0 -->
      <g transform="translate(71.298294 371.078438) scale(0.1 -0.1)">
       <defs>
        <path id="DejaVuSans-30" d="M 2034 4250 
Q 1547 4250 1301 3770 
Q 1056 3291 1056 2328 
Q 1056 1369 1301 889 
Q 1547 409 2034 409 
Q 2525 409 2770 889 
Q 3016 1369 3016 2328 
Q 3016 3291 2770 3770 
Q 2525 4250 2034 4250 
z
M 2034 4750 
Q 2819 4750 3233 4129 
Q 3647 3509 3647 2328 
Q 3647 1150 3233 529 
Q 2819 -91 2034 -91 
Q 1250 -91 836 529 
Q 422 1150 422 2328 
Q 422 3509 836 4129 
Q 1250 4750 2034 4750 
z
" transform="scale(0.015625)"/>
       </defs>
       <use xlink:href="#DejaVuSans-30"/>
      </g>
     </g>
    </g>
    <g id="xtick_2">
     <g id="line2d_3">
      <path d="M 160.457972 356.48 
L 160.457972 23.84 
" clip-path="url(#pdbd7ef9ff3)" style="fill: none; stroke: #b0b0b0; stroke-width: 0.8; stroke-linecap: square"/>
     </g>
     <g id="line2d_4">
      <g>
       <use xlink:href="#m8344a0a6a2" x="160.457972" y="356.48" style="stroke: #000000; stroke-width: 0.8"/>
      </g>
     </g>
     <g id="text_2">
      <!-- 50 -->
      <g transform="translate(154.095472 371.078438) scale(0.1 -0.1)">
       <defs>
        <path id="DejaVuSans-35" d="M 691 4666 
L 3169 4666 
L 3169 4134 
L 1269 4134 
L 1269 2991 
Q 1406 3038 1543 3061 
Q 1681 3084 1819 3084 
Q 2600 3084 3056 2656 
Q 3513 2228 3513 1497 
Q 3513 744 3044 326 
Q 2575 -91 1722 -91 
Q 1428 -91 1123 -41 
Q 819 9 494 109 
L 494 744 
Q 775 591 1075 516 
Q 1375 441 1709 441 
Q 2250 441 2565 725 
Q 2881 1009 2881 1497 
Q 2881 1984 2565 2268 
Q 2250 2553 1709 2553 
Q 1456 2553 1204 2497 
Q 953 2441 691 2322 
L 691 4666 
z
" transform="scale(0.015625)"/>
       </defs>
       <use xlink:href="#DejaVuSans-35"/>
       <use xlink:href="#DejaVuSans-30" x="63.623047"/>
      </g>
     </g>
    </g>
    <g id="xtick_3">
     <g id="line2d_5">
      <path d="M 246.4364 356.48 
L 246.4364 23.84 
" clip-path="url(#pdbd7ef9ff3)" style="fill: none; stroke: #b0b0b0; stroke-width: 0.8; stroke-linecap: square"/>
     </g>
     <g id="line2d_6">
      <g>
       <use xlink:href="#m8344a0a6a2" x="246.4364" y="356.48" style="stroke: #000000; stroke-width: 0.8"/>
      </g>
     </g>
     <g id="text_3">
      <!-- 100 -->
      <g transform="translate(236.89265 371.078438) scale(0.1 -0.1)">
       <defs>
        <path id="DejaVuSans-31" d="M 794 531 
L 1825 531 
L 1825 4091 
L 703 3866 
L 703 4441 
L 1819 4666 
L 2450 4666 
L 2450 531 
L 3481 531 
L 3481 0 
L 794 0 
L 794 531 
z
" transform="scale(0.015625)"/>
       </defs>
       <use xlink:href="#DejaVuSans-31"/>
       <use xlink:href="#DejaVuSans-30" x="63.623047"/>
       <use xlink:href="#DejaVuSans-30" x="127.246094"/>
      </g>
     </g>
    </g>
    <g id="xtick_4">
     <g id="line2d_7">
      <path d="M 332.414829 356.48 
L 332.414829 23.84 
" clip-path="url(#pdbd7ef9ff3)" style="fill: none; stroke: #b0b0b0; stroke-width: 0.8; stroke-linecap: square"/>
     </g>
     <g id="line2d_8">
      <g>
       <use xlink:href="#m8344a0a6a2" x="332.414829" y="356.48" style="stroke: #000000; stroke-width: 0.8"/>
      </g>
     </g>
     <g id="text_4">
      <!-- 150 -->
      <g transform="translate(322.871079 371.078438) scale(0.1 -0.1)">
       <use xlink:href="#DejaVuSans-31"/>
       <use xlink:href="#DejaVuSans-35" x="63.623047"/>
       <use xlink:href="#DejaVuSans-30" x="127.246094"/>
      </g>
     </g>
    </g>
    <g id="xtick_5">
     <g id="line2d_9">
      <path d="M 418.393257 356.48 
L 418.393257 23.84 
" clip-path="url(#pdbd7ef9ff3)" style="fill: none; stroke: #b0b0b0; stroke-width: 0.8; stroke-linecap: square"/>
     </g>
     <g id="line2d_10">
      <g>
       <use xlink:href="#m8344a0a6a2" x="418.393257" y="356.48" style="stroke: #000000; stroke-width: 0.8"/>
      </g>
     </g>
     <g id="text_5">
      <!-- 200 -->
      <g transform="translate(408.849507 371.078438) scale(0.1 -0.1)">
       <defs>
        <path id="DejaVuSans-32" d="M 1228 531 
L 3431 531 
L 3431 0 
L 469 0 
L 469 531 
Q 828 903 1448 1529 
Q 2069 2156 2228 2338 
Q 2531 2678 2651 2914 
Q 2772 3150 2772 3378 
Q 2772 3750 2511 3984 
Q 2250 4219 1831 4219 
Q 1534 4219 1204 4116 
Q 875 4013 500 3803 
L 500 4441 
Q 881 4594 1212 4672 
Q 1544 4750 1819 4750 
Q 2544 4750 2975 4387 
Q 3406 4025 3406 3419 
Q 3406 3131 3298 2873 
Q 3191 2616 2906 2266 
Q 2828 2175 2409 1742 
Q 1991 1309 1228 531 
z
" transform="scale(0.015625)"/>
       </defs>
       <use xlink:href="#DejaVuSans-32"/>
       <use xlink:href="#DejaVuSans-30" x="63.623047"/>
       <use xlink:href="#DejaVuSans-30" x="127.246094"/>
      </g>
     </g>
    </g>
    <g id="xtick_6">
     <g id="line2d_11">
      <path d="M 504.371685 356.48 
L 504.371685 23.84 
" clip-path="url(#pdbd7ef9ff3)" style="fill: none; stroke: #b0b0b0; stroke-width: 0.8; stroke-linecap: square"/>
     </g>
     <g id="line2d_12">
      <g>
       <use xlink:href="#m8344a0a6a2" x="504.371685" y="356.48" style="stroke: #000000; stroke-width: 0.8"/>
      </g>
     </g>
     <g id="text_6">
      <!-- 250 -->
      <g transform="translate(494.827935 371.078438) scale(0.1 -0.1)">
       <use xlink:href="#DejaVuSans-32"/>
       <use xlink:href="#DejaVuSans-35" x="63.623047"/>
       <use xlink:href="#DejaVuSans-30" x="127.246094"/>
      </g>
     </g>
    </g>
    <g id="xtick_7">
     <g id="line2d_13">
      <path d="M 590.350114 356.48 
L 590.350114 23.84 
" clip-path="url(#pdbd7ef9ff3)" style="fill: none; stroke: #b0b0b0; stroke-width: 0.8; stroke-linecap: square"/>
     </g>
     <g id="line2d_14">
      <g>
       <use xlink:href="#m8344a0a6a2" x="590.350114" y="356.48" style="stroke: #000000; stroke-width: 0.8"/>
      </g>
     </g>
     <g id="text_7">
      <!-- 300 -->
      <g transform="translate(580.806364 371.078438) scale(0.1 -0.1)">
       <defs>
        <path id="DejaVuSans-33" d="M 2597 2516 
Q 3050 2419 3304 2112 
Q 3559 1806 3559 1356 
Q 3559 666 3084 287 
Q 2609 -91 1734 -91 
Q 1441 -91 1130 -33 
Q 819 25 488 141 
L 488 750 
Q 750 597 1062 519 
Q 1375 441 1716 441 
Q 2309 441 2620 675 
Q 2931 909 2931 1356 
Q 2931 1769 2642 2001 
Q 2353 2234 1838 2234 
L 1294 2234 
L 1294 2753 
L 1863 2753 
Q 2328 2753 2575 2939 
Q 2822 3125 2822 3475 
Q 2822 3834 2567 4026 
Q 2313 4219 1838 4219 
Q 1578 4219 1281 4162 
Q 984 4106 628 3988 
L 628 4550 
Q 988 4650 1302 4700 
Q 1616 4750 1894 4750 
Q 2613 4750 3031 4423 
Q 3450 4097 3450 3541 
Q 3450 3153 3228 2886 
Q 3006 2619 2597 2516 
z
" transform="scale(0.015625)"/>
       </defs>
       <use xlink:href="#DejaVuSans-33"/>
       <use xlink:href="#DejaVuSans-30" x="63.623047"/>
       <use xlink:href="#DejaVuSans-30" x="127.246094"/>
      </g>
     </g>
    </g>
    <g id="text_8">
     <!-- Approximation rank $k$ -->
     <g transform="translate(271.85375 386.278125) scale(0.12 -0.12)">
      <defs>
       <path id="DejaVuSans-41" d="M 2188 4044 
L 1331 1722 
L 3047 1722 
L 2188 4044 
z
M 1831 4666 
L 2547 4666 
L 4325 0 
L 3669 0 
L 3244 1197 
L 1141 1197 
L 716 0 
L 50 0 
L 1831 4666 
z
" transform="scale(0.015625)"/>
       <path id="DejaVuSans-70" d="M 1159 525 
L 1159 -1331 
L 581 -1331 
L 581 3500 
L 1159 3500 
L 1159 2969 
Q 1341 3281 1617 3432 
Q 1894 3584 2278 3584 
Q 2916 3584 3314 3078 
Q 3713 2572 3713 1747 
Q 3713 922 3314 415 
Q 2916 -91 2278 -91 
Q 1894 -91 1617 61 
Q 1341 213 1159 525 
z
M 3116 1747 
Q 3116 2381 2855 2742 
Q 2594 3103 2138 3103 
Q 1681 3103 1420 2742 
Q 1159 2381 1159 1747 
Q 1159 1113 1420 752 
Q 1681 391 2138 391 
Q 2594 391 2855 752 
Q 3116 1113 3116 1747 
z
" transform="scale(0.015625)"/>
       <path id="DejaVuSans-72" d="M 2631 2963 
Q 2534 3019 2420 3045 
Q 2306 3072 2169 3072 
Q 1681 3072 1420 2755 
Q 1159 2438 1159 1844 
L 1159 0 
L 581 0 
L 581 3500 
L 1159 3500 
L 1159 2956 
Q 1341 3275 1631 3429 
Q 1922 3584 2338 3584 
Q 2397 3584 2469 3576 
Q 2541 3569 2628 3553 
L 2631 2963 
z
" transform="scale(0.015625)"/>
       <path id="DejaVuSans-6f" d="M 1959 3097 
Q 1497 3097 1228 2736 
Q 959 2375 959 1747 
Q 959 1119 1226 758 
Q 1494 397 1959 397 
Q 2419 397 2687 759 
Q 2956 1122 2956 1747 
Q 2956 2369 2687 2733 
Q 2419 3097 1959 3097 
z
M 1959 3584 
Q 2709 3584 3137 3096 
Q 3566 2609 3566 1747 
Q 3566 888 3137 398 
Q 2709 -91 1959 -91 
Q 1206 -91 779 398 
Q 353 888 353 1747 
Q 353 2609 779 3096 
Q 1206 3584 1959 3584 
z
" transform="scale(0.015625)"/>
       <path id="DejaVuSans-78" d="M 3513 3500 
L 2247 1797 
L 3578 0 
L 2900 0 
L 1881 1375 
L 863 0 
L 184 0 
L 1544 1831 
L 300 3500 
L 978 3500 
L 1906 2253 
L 2834 3500 
L 3513 3500 
z
" transform="scale(0.015625)"/>
       <path id="DejaVuSans-69" d="M 603 3500 
L 1178 3500 
L 1178 0 
L 603 0 
L 603 3500 
z
M 603 4863 
L 1178 4863 
L 1178 4134 
L 603 4134 
L 603 4863 
z
" transform="scale(0.015625)"/>
       <path id="DejaVuSans-6d" d="M 3328 2828 
Q 3544 3216 3844 3400 
Q 4144 3584 4550 3584 
Q 5097 3584 5394 3201 
Q 5691 2819 5691 2113 
L 5691 0 
L 5113 0 
L 5113 2094 
Q 5113 2597 4934 2840 
Q 4756 3084 4391 3084 
Q 3944 3084 3684 2787 
Q 3425 2491 3425 1978 
L 3425 0 
L 2847 0 
L 2847 2094 
Q 2847 2600 2669 2842 
Q 2491 3084 2119 3084 
Q 1678 3084 1418 2786 
Q 1159 2488 1159 1978 
L 1159 0 
L 581 0 
L 581 3500 
L 1159 3500 
L 1159 2956 
Q 1356 3278 1631 3431 
Q 1906 3584 2284 3584 
Q 2666 3584 2933 3390 
Q 3200 3197 3328 2828 
z
" transform="scale(0.015625)"/>
       <path id="DejaVuSans-61" d="M 2194 1759 
Q 1497 1759 1228 1600 
Q 959 1441 959 1056 
Q 959 750 1161 570 
Q 1363 391 1709 391 
Q 2188 391 2477 730 
Q 2766 1069 2766 1631 
L 2766 1759 
L 2194 1759 
z
M 3341 1997 
L 3341 0 
L 2766 0 
L 2766 531 
Q 2569 213 2275 61 
Q 1981 -91 1556 -91 
Q 1019 -91 701 211 
Q 384 513 384 1019 
Q 384 1609 779 1909 
Q 1175 2209 1959 2209 
L 2766 2209 
L 2766 2266 
Q 2766 2663 2505 2880 
Q 2244 3097 1772 3097 
Q 1472 3097 1187 3025 
Q 903 2953 641 2809 
L 641 3341 
Q 956 3463 1253 3523 
Q 1550 3584 1831 3584 
Q 2591 3584 2966 3190 
Q 3341 2797 3341 1997 
z
" transform="scale(0.015625)"/>
       <path id="DejaVuSans-74" d="M 1172 4494 
L 1172 3500 
L 2356 3500 
L 2356 3053 
L 1172 3053 
L 1172 1153 
Q 1172 725 1289 603 
Q 1406 481 1766 481 
L 2356 481 
L 2356 0 
L 1766 0 
Q 1100 0 847 248 
Q 594 497 594 1153 
L 594 3053 
L 172 3053 
L 172 3500 
L 594 3500 
L 594 4494 
L 1172 4494 
z
" transform="scale(0.015625)"/>
       <path id="DejaVuSans-6e" d="M 3513 2113 
L 3513 0 
L 2938 0 
L 2938 2094 
Q 2938 2591 2744 2837 
Q 2550 3084 2163 3084 
Q 1697 3084 1428 2787 
Q 1159 2491 1159 1978 
L 1159 0 
L 581 0 
L 581 3500 
L 1159 3500 
L 1159 2956 
Q 1366 3272 1645 3428 
Q 1925 3584 2291 3584 
Q 2894 3584 3203 3211 
Q 3513 2838 3513 2113 
z
" transform="scale(0.015625)"/>
       <path id="DejaVuSans-20" transform="scale(0.015625)"/>
       <path id="DejaVuSans-6b" d="M 581 4863 
L 1159 4863 
L 1159 1991 
L 2875 3500 
L 3609 3500 
L 1753 1863 
L 3688 0 
L 2938 0 
L 1159 1709 
L 1159 0 
L 581 0 
L 581 4863 
z
" transform="scale(0.015625)"/>
       <path id="DejaVuSans-Oblique-6b" d="M 1172 4863 
L 1747 4863 
L 1197 2028 
L 3169 3500 
L 3916 3500 
L 1716 1825 
L 3322 0 
L 2625 0 
L 1131 1709 
L 800 0 
L 225 0 
L 1172 4863 
z
" transform="scale(0.015625)"/>
      </defs>
      <use xlink:href="#DejaVuSans-41" transform="translate(0 0.015625)"/>
      <use xlink:href="#DejaVuSans-70" transform="translate(68.408203 0.015625)"/>
      <use xlink:href="#DejaVuSans-70" transform="translate(131.884766 0.015625)"/>
      <use xlink:href="#DejaVuSans-72" transform="translate(195.361328 0.015625)"/>
      <use xlink:href="#DejaVuSans-6f" transform="translate(236.474609 0.015625)"/>
      <use xlink:href="#DejaVuSans-78" transform="translate(297.65625 0.015625)"/>
      <use xlink:href="#DejaVuSans-69" transform="translate(356.835938 0.015625)"/>
      <use xlink:href="#DejaVuSans-6d" transform="translate(384.619141 0.015625)"/>
      <use xlink:href="#DejaVuSans-61" transform="translate(482.03125 0.015625)"/>
      <use xlink:href="#DejaVuSans-74" transform="translate(543.310547 0.015625)"/>
      <use xlink:href="#DejaVuSans-69" transform="translate(582.519531 0.015625)"/>
      <use xlink:href="#DejaVuSans-6f" transform="translate(610.302734 0.015625)"/>
      <use xlink:href="#DejaVuSans-6e" transform="translate(671.484375 0.015625)"/>
      <use xlink:href="#DejaVuSans-20" transform="translate(734.863281 0.015625)"/>
      <use xlink:href="#DejaVuSans-72" transform="translate(766.650391 0.015625)"/>
      <use xlink:href="#DejaVuSans-61" transform="translate(807.763672 0.015625)"/>
      <use xlink:href="#DejaVuSans-6e" transform="translate(869.042969 0.015625)"/>
      <use xlink:href="#DejaVuSans-6b" transform="translate(932.421875 0.015625)"/>
      <use xlink:href="#DejaVuSans-20" transform="translate(990.332031 0.015625)"/>
      <use xlink:href="#DejaVuSans-Oblique-6b" transform="translate(1022.119141 0.015625)"/>
     </g>
    </g>
   </g>
   <g id="matplotlib.axis_2">
    <g id="ytick_1">
     <g id="line2d_15">
      <path d="M 57.71375 322.154879 
L 615.71375 322.154879 
" clip-path="url(#pdbd7ef9ff3)" style="fill: none; stroke: #b0b0b0; stroke-width: 0.8; stroke-linecap: square"/>
     </g>
     <g id="line2d_16">
      <defs>
       <path id="m7b9a6d7abc" d="M 0 0 
L -3.5 0 
" style="stroke: #000000; stroke-width: 0.8"/>
      </defs>
      <g>
       <use xlink:href="#m7b9a6d7abc" x="57.71375" y="322.154879" style="stroke: #000000; stroke-width: 0.8"/>
      </g>
     </g>
     <g id="text_9">
      <!-- $\mathdefault{10^{-15}}$ -->
      <g transform="translate(22.81375 325.954098) scale(0.1 -0.1)">
       <defs>
        <path id="DejaVuSans-2212" d="M 678 2272 
L 4684 2272 
L 4684 1741 
L 678 1741 
L 678 2272 
z
" transform="scale(0.015625)"/>
       </defs>
       <use xlink:href="#DejaVuSans-31" transform="translate(0 0.684375)"/>
       <use xlink:href="#DejaVuSans-30" transform="translate(63.623047 0.684375)"/>
       <use xlink:href="#DejaVuSans-2212" transform="translate(128.203125 38.965625) scale(0.7)"/>
       <use xlink:href="#DejaVuSans-31" transform="translate(186.855469 38.965625) scale(0.7)"/>
       <use xlink:href="#DejaVuSans-35" transform="translate(231.391602 38.965625) scale(0.7)"/>
      </g>
     </g>
    </g>
    <g id="ytick_2">
     <g id="line2d_17">
      <path d="M 57.71375 283.744637 
L 615.71375 283.744637 
" clip-path="url(#pdbd7ef9ff3)" style="fill: none; stroke: #b0b0b0; stroke-width: 0.8; stroke-linecap: square"/>
     </g>
     <g id="line2d_18">
      <g>
       <use xlink:href="#m7b9a6d7abc" x="57.71375" y="283.744637" style="stroke: #000000; stroke-width: 0.8"/>
      </g>
     </g>
     <g id="text_10">
      <!-- $\mathdefault{10^{-13}}$ -->
      <g transform="translate(22.81375 287.543855) scale(0.1 -0.1)">
       <use xlink:href="#DejaVuSans-31" transform="translate(0 0.765625)"/>
       <use xlink:href="#DejaVuSans-30" transform="translate(63.623047 0.765625)"/>
       <use xlink:href="#DejaVuSans-2212" transform="translate(128.203125 39.046875) scale(0.7)"/>
       <use xlink:href="#DejaVuSans-31" transform="translate(186.855469 39.046875) scale(0.7)"/>
       <use xlink:href="#DejaVuSans-33" transform="translate(231.391602 39.046875) scale(0.7)"/>
      </g>
     </g>
    </g>
    <g id="ytick_3">
     <g id="line2d_19">
      <path d="M 57.71375 245.334394 
L 615.71375 245.334394 
" clip-path="url(#pdbd7ef9ff3)" style="fill: none; stroke: #b0b0b0; stroke-width: 0.8; stroke-linecap: square"/>
     </g>
     <g id="line2d_20">
      <g>
       <use xlink:href="#m7b9a6d7abc" x="57.71375" y="245.334394" style="stroke: #000000; stroke-width: 0.8"/>
      </g>
     </g>
     <g id="text_11">
      <!-- $\mathdefault{10^{-11}}$ -->
      <g transform="translate(22.81375 249.133613) scale(0.1 -0.1)">
       <use xlink:href="#DejaVuSans-31" transform="translate(0 0.684375)"/>
       <use xlink:href="#DejaVuSans-30" transform="translate(63.623047 0.684375)"/>
       <use xlink:href="#DejaVuSans-2212" transform="translate(128.203125 38.965625) scale(0.7)"/>
       <use xlink:href="#DejaVuSans-31" transform="translate(186.855469 38.965625) scale(0.7)"/>
       <use xlink:href="#DejaVuSans-31" transform="translate(231.391602 38.965625) scale(0.7)"/>
      </g>
     </g>
    </g>
    <g id="ytick_4">
     <g id="line2d_21">
      <path d="M 57.71375 206.924152 
L 615.71375 206.924152 
" clip-path="url(#pdbd7ef9ff3)" style="fill: none; stroke: #b0b0b0; stroke-width: 0.8; stroke-linecap: square"/>
     </g>
     <g id="line2d_22">
      <g>
       <use xlink:href="#m7b9a6d7abc" x="57.71375" y="206.924152" style="stroke: #000000; stroke-width: 0.8"/>
      </g>
     </g>
     <g id="text_12">
      <!-- $\mathdefault{10^{-9}}$ -->
      <g transform="translate(27.21375 210.723371) scale(0.1 -0.1)">
       <defs>
        <path id="DejaVuSans-39" d="M 703 97 
L 703 672 
Q 941 559 1184 500 
Q 1428 441 1663 441 
Q 2288 441 2617 861 
Q 2947 1281 2994 2138 
Q 2813 1869 2534 1725 
Q 2256 1581 1919 1581 
Q 1219 1581 811 2004 
Q 403 2428 403 3163 
Q 403 3881 828 4315 
Q 1253 4750 1959 4750 
Q 2769 4750 3195 4129 
Q 3622 3509 3622 2328 
Q 3622 1225 3098 567 
Q 2575 -91 1691 -91 
Q 1453 -91 1209 -44 
Q 966 3 703 97 
z
M 1959 2075 
Q 2384 2075 2632 2365 
Q 2881 2656 2881 3163 
Q 2881 3666 2632 3958 
Q 2384 4250 1959 4250 
Q 1534 4250 1286 3958 
Q 1038 3666 1038 3163 
Q 1038 2656 1286 2365 
Q 1534 2075 1959 2075 
z
" transform="scale(0.015625)"/>
       </defs>
       <use xlink:href="#DejaVuSans-31" transform="translate(0 0.765625)"/>
       <use xlink:href="#DejaVuSans-30" transform="translate(63.623047 0.765625)"/>
       <use xlink:href="#DejaVuSans-2212" transform="translate(128.203125 39.046875) scale(0.7)"/>
       <use xlink:href="#DejaVuSans-39" transform="translate(186.855469 39.046875) scale(0.7)"/>
      </g>
     </g>
    </g>
    <g id="ytick_5">
     <g id="line2d_23">
      <path d="M 57.71375 168.51391 
L 615.71375 168.51391 
" clip-path="url(#pdbd7ef9ff3)" style="fill: none; stroke: #b0b0b0; stroke-width: 0.8; stroke-linecap: square"/>
     </g>
     <g id="line2d_24">
      <g>
       <use xlink:href="#m7b9a6d7abc" x="57.71375" y="168.51391" style="stroke: #000000; stroke-width: 0.8"/>
      </g>
     </g>
     <g id="text_13">
      <!-- $\mathdefault{10^{-7}}$ -->
      <g transform="translate(27.21375 172.313129) scale(0.1 -0.1)">
       <defs>
        <path id="DejaVuSans-37" d="M 525 4666 
L 3525 4666 
L 3525 4397 
L 1831 0 
L 1172 0 
L 2766 4134 
L 525 4134 
L 525 4666 
z
" transform="scale(0.015625)"/>
       </defs>
       <use xlink:href="#DejaVuSans-31" transform="translate(0 0.684375)"/>
       <use xlink:href="#DejaVuSans-30" transform="translate(63.623047 0.684375)"/>
       <use xlink:href="#DejaVuSans-2212" transform="translate(128.203125 38.965625) scale(0.7)"/>
       <use xlink:href="#DejaVuSans-37" transform="translate(186.855469 38.965625) scale(0.7)"/>
      </g>
     </g>
    </g>
    <g id="ytick_6">
     <g id="line2d_25">
      <path d="M 57.71375 130.103668 
L 615.71375 130.103668 
" clip-path="url(#pdbd7ef9ff3)" style="fill: none; stroke: #b0b0b0; stroke-width: 0.8; stroke-linecap: square"/>
     </g>
     <g id="line2d_26">
      <g>
       <use xlink:href="#m7b9a6d7abc" x="57.71375" y="130.103668" style="stroke: #000000; stroke-width: 0.8"/>
      </g>
     </g>
     <g id="text_14">
      <!-- $\mathdefault{10^{-5}}$ -->
      <g transform="translate(27.21375 133.902887) scale(0.1 -0.1)">
       <use xlink:href="#DejaVuSans-31" transform="translate(0 0.684375)"/>
       <use xlink:href="#DejaVuSans-30" transform="translate(63.623047 0.684375)"/>
       <use xlink:href="#DejaVuSans-2212" transform="translate(128.203125 38.965625) scale(0.7)"/>
       <use xlink:href="#DejaVuSans-35" transform="translate(186.855469 38.965625) scale(0.7)"/>
      </g>
     </g>
    </g>
    <g id="ytick_7">
     <g id="line2d_27">
      <path d="M 57.71375 91.693426 
L 615.71375 91.693426 
" clip-path="url(#pdbd7ef9ff3)" style="fill: none; stroke: #b0b0b0; stroke-width: 0.8; stroke-linecap: square"/>
     </g>
     <g id="line2d_28">
      <g>
       <use xlink:href="#m7b9a6d7abc" x="57.71375" y="91.693426" style="stroke: #000000; stroke-width: 0.8"/>
      </g>
     </g>
     <g id="text_15">
      <!-- $\mathdefault{10^{-3}}$ -->
      <g transform="translate(27.21375 95.492644) scale(0.1 -0.1)">
       <use xlink:href="#DejaVuSans-31" transform="translate(0 0.765625)"/>
       <use xlink:href="#DejaVuSans-30" transform="translate(63.623047 0.765625)"/>
       <use xlink:href="#DejaVuSans-2212" transform="translate(128.203125 39.046875) scale(0.7)"/>
       <use xlink:href="#DejaVuSans-33" transform="translate(186.855469 39.046875) scale(0.7)"/>
      </g>
     </g>
    </g>
    <g id="ytick_8">
     <g id="line2d_29">
      <path d="M 57.71375 53.283183 
L 615.71375 53.283183 
" clip-path="url(#pdbd7ef9ff3)" style="fill: none; stroke: #b0b0b0; stroke-width: 0.8; stroke-linecap: square"/>
     </g>
     <g id="line2d_30">
      <g>
       <use xlink:href="#m7b9a6d7abc" x="57.71375" y="53.283183" style="stroke: #000000; stroke-width: 0.8"/>
      </g>
     </g>
     <g id="text_16">
      <!-- $\mathdefault{10^{-1}}$ -->
      <g transform="translate(27.21375 57.082402) scale(0.1 -0.1)">
       <use xlink:href="#DejaVuSans-31" transform="translate(0 0.684375)"/>
       <use xlink:href="#DejaVuSans-30" transform="translate(63.623047 0.684375)"/>
       <use xlink:href="#DejaVuSans-2212" transform="translate(128.203125 38.965625) scale(0.7)"/>
       <use xlink:href="#DejaVuSans-31" transform="translate(186.855469 38.965625) scale(0.7)"/>
      </g>
     </g>
    </g>
    <g id="text_17">
     <!-- Nuclear norm relative error -->
     <g transform="translate(16.318125 271.805) rotate(-90) scale(0.12 -0.12)">
      <defs>
       <path id="DejaVuSans-4e" d="M 628 4666 
L 1478 4666 
L 3547 763 
L 3547 4666 
L 4159 4666 
L 4159 0 
L 3309 0 
L 1241 3903 
L 1241 0 
L 628 0 
L 628 4666 
z
" transform="scale(0.015625)"/>
       <path id="DejaVuSans-75" d="M 544 1381 
L 544 3500 
L 1119 3500 
L 1119 1403 
Q 1119 906 1312 657 
Q 1506 409 1894 409 
Q 2359 409 2629 706 
Q 2900 1003 2900 1516 
L 2900 3500 
L 3475 3500 
L 3475 0 
L 2900 0 
L 2900 538 
Q 2691 219 2414 64 
Q 2138 -91 1772 -91 
Q 1169 -91 856 284 
Q 544 659 544 1381 
z
M 1991 3584 
L 1991 3584 
z
" transform="scale(0.015625)"/>
       <path id="DejaVuSans-63" d="M 3122 3366 
L 3122 2828 
Q 2878 2963 2633 3030 
Q 2388 3097 2138 3097 
Q 1578 3097 1268 2742 
Q 959 2388 959 1747 
Q 959 1106 1268 751 
Q 1578 397 2138 397 
Q 2388 397 2633 464 
Q 2878 531 3122 666 
L 3122 134 
Q 2881 22 2623 -34 
Q 2366 -91 2075 -91 
Q 1284 -91 818 406 
Q 353 903 353 1747 
Q 353 2603 823 3093 
Q 1294 3584 2113 3584 
Q 2378 3584 2631 3529 
Q 2884 3475 3122 3366 
z
" transform="scale(0.015625)"/>
       <path id="DejaVuSans-6c" d="M 603 4863 
L 1178 4863 
L 1178 0 
L 603 0 
L 603 4863 
z
" transform="scale(0.015625)"/>
       <path id="DejaVuSans-65" d="M 3597 1894 
L 3597 1613 
L 953 1613 
Q 991 1019 1311 708 
Q 1631 397 2203 397 
Q 2534 397 2845 478 
Q 3156 559 3463 722 
L 3463 178 
Q 3153 47 2828 -22 
Q 2503 -91 2169 -91 
Q 1331 -91 842 396 
Q 353 884 353 1716 
Q 353 2575 817 3079 
Q 1281 3584 2069 3584 
Q 2775 3584 3186 3129 
Q 3597 2675 3597 1894 
z
M 3022 2063 
Q 3016 2534 2758 2815 
Q 2500 3097 2075 3097 
Q 1594 3097 1305 2825 
Q 1016 2553 972 2059 
L 3022 2063 
z
" transform="scale(0.015625)"/>
       <path id="DejaVuSans-76" d="M 191 3500 
L 800 3500 
L 1894 563 
L 2988 3500 
L 3597 3500 
L 2284 0 
L 1503 0 
L 191 3500 
z
" transform="scale(0.015625)"/>
      </defs>
      <use xlink:href="#DejaVuSans-4e"/>
      <use xlink:href="#DejaVuSans-75" x="74.804688"/>
      <use xlink:href="#DejaVuSans-63" x="138.183594"/>
      <use xlink:href="#DejaVuSans-6c" x="193.164062"/>
      <use xlink:href="#DejaVuSans-65" x="220.947266"/>
      <use xlink:href="#DejaVuSans-61" x="282.470703"/>
      <use xlink:href="#DejaVuSans-72" x="343.75"/>
      <use xlink:href="#DejaVuSans-20" x="384.863281"/>
      <use xlink:href="#DejaVuSans-6e" x="416.650391"/>
      <use xlink:href="#DejaVuSans-6f" x="480.029297"/>
      <use xlink:href="#DejaVuSans-72" x="541.210938"/>
      <use xlink:href="#DejaVuSans-6d" x="580.574219"/>
      <use xlink:href="#DejaVuSans-20" x="677.986328"/>
      <use xlink:href="#DejaVuSans-72" x="709.773438"/>
      <use xlink:href="#DejaVuSans-65" x="748.636719"/>
      <use xlink:href="#DejaVuSans-6c" x="810.160156"/>
      <use xlink:href="#DejaVuSans-61" x="837.943359"/>
      <use xlink:href="#DejaVuSans-74" x="899.222656"/>
      <use xlink:href="#DejaVuSans-69" x="938.431641"/>
      <use xlink:href="#DejaVuSans-76" x="966.214844"/>
      <use xlink:href="#DejaVuSans-65" x="1025.394531"/>
      <use xlink:href="#DejaVuSans-20" x="1086.917969"/>
      <use xlink:href="#DejaVuSans-65" x="1118.705078"/>
      <use xlink:href="#DejaVuSans-72" x="1180.228516"/>
      <use xlink:href="#DejaVuSans-72" x="1219.591797"/>
      <use xlink:href="#DejaVuSans-6f" x="1258.455078"/>
      <use xlink:href="#DejaVuSans-72" x="1319.636719"/>
     </g>
    </g>
   </g>
   <g id="line2d_31">
    <path d="M 83.077386 38.96 
L 91.675229 52.200643 
L 117.468758 124.219782 
L 160.457972 217.758867 
" clip-path="url(#pdbd7ef9ff3)" style="fill: none; stroke: #0b3954; stroke-width: 1.5; stroke-linecap: square"/>
    <defs>
     <path id="m494c8ea5f3" d="M 0 3 
C 0.795609 3 1.55874 2.683901 2.12132 2.12132 
C 2.683901 1.55874 3 0.795609 3 0 
C 3 -0.795609 2.683901 -1.55874 2.12132 -2.12132 
C 1.55874 -2.683901 0.795609 -3 0 -3 
C -0.795609 -3 -1.55874 -2.683901 -2.12132 -2.12132 
C -2.683901 -1.55874 -3 -0.795609 -3 0 
C -3 0.795609 -2.683901 1.55874 -2.12132 2.12132 
C -1.55874 2.683901 -0.795609 3 0 3 
z
" style="stroke: #0b3954"/>
    </defs>
    <g clip-path="url(#pdbd7ef9ff3)">
     <use xlink:href="#m494c8ea5f3" x="83.077386" y="38.96" style="fill: #0b3954; stroke: #0b3954"/>
     <use xlink:href="#m494c8ea5f3" x="91.675229" y="52.200643" style="fill: #0b3954; stroke: #0b3954"/>
     <use xlink:href="#m494c8ea5f3" x="117.468758" y="124.219782" style="fill: #0b3954; stroke: #0b3954"/>
     <use xlink:href="#m494c8ea5f3" x="160.457972" y="217.758867" style="fill: #0b3954; stroke: #0b3954"/>
    </g>
   </g>
   <g id="line2d_32">
    <path d="M 83.077386 38.96 
L 91.675229 52.200643 
L 117.468758 124.219847 
L 160.457972 244.244889 
L 246.4364 302.402495 
L 332.414829 302.402495 
" clip-path="url(#pdbd7ef9ff3)" style="fill: none; stroke: #087e8b; stroke-width: 1.5; stroke-linecap: square"/>
    <defs>
     <path id="m475d6a78ab" d="M 0 3 
C 0.795609 3 1.55874 2.683901 2.12132 2.12132 
C 2.683901 1.55874 3 0.795609 3 0 
C 3 -0.795609 2.683901 -1.55874 2.12132 -2.12132 
C 1.55874 -2.683901 0.795609 -3 0 -3 
C -0.795609 -3 -1.55874 -2.683901 -2.12132 -2.12132 
C -2.683901 -1.55874 -3 -0.795609 -3 0 
C -3 0.795609 -2.683901 1.55874 -2.12132 2.12132 
C -1.55874 2.683901 -0.795609 3 0 3 
z
" style="stroke: #087e8b"/>
    </defs>
    <g clip-path="url(#pdbd7ef9ff3)">
     <use xlink:href="#m475d6a78ab" x="83.077386" y="38.96" style="fill: #087e8b; stroke: #087e8b"/>
     <use xlink:href="#m475d6a78ab" x="91.675229" y="52.200643" style="fill: #087e8b; stroke: #087e8b"/>
     <use xlink:href="#m475d6a78ab" x="117.468758" y="124.219847" style="fill: #087e8b; stroke: #087e8b"/>
     <use xlink:href="#m475d6a78ab" x="160.457972" y="244.244889" style="fill: #087e8b; stroke: #087e8b"/>
     <use xlink:href="#m475d6a78ab" x="246.4364" y="302.402495" style="fill: #087e8b; stroke: #087e8b"/>
     <use xlink:href="#m475d6a78ab" x="332.414829" y="302.402495" style="fill: #087e8b; stroke: #087e8b"/>
    </g>
   </g>
   <g id="line2d_33">
    <path d="M 83.077386 38.96 
L 91.675229 52.200643 
L 117.468758 124.219847 
L 160.457972 244.242754 
L 246.4364 300.494566 
L 332.414829 300.494566 
L 418.393257 300.494566 
" clip-path="url(#pdbd7ef9ff3)" style="fill: none; stroke: #bfd7ea; stroke-width: 1.5; stroke-linecap: square"/>
    <defs>
     <path id="m39e81d7819" d="M 0 3 
C 0.795609 3 1.55874 2.683901 2.12132 2.12132 
C 2.683901 1.55874 3 0.795609 3 0 
C 3 -0.795609 2.683901 -1.55874 2.12132 -2.12132 
C 1.55874 -2.683901 0.795609 -3 0 -3 
C -0.795609 -3 -1.55874 -2.683901 -2.12132 -2.12132 
C -2.683901 -1.55874 -3 -0.795609 -3 0 
C -3 0.795609 -2.683901 1.55874 -2.12132 2.12132 
C -1.55874 2.683901 -0.795609 3 0 3 
z
" style="stroke: #bfd7ea"/>
    </defs>
    <g clip-path="url(#pdbd7ef9ff3)">
     <use xlink:href="#m39e81d7819" x="83.077386" y="38.96" style="fill: #bfd7ea; stroke: #bfd7ea"/>
     <use xlink:href="#m39e81d7819" x="91.675229" y="52.200643" style="fill: #bfd7ea; stroke: #bfd7ea"/>
     <use xlink:href="#m39e81d7819" x="117.468758" y="124.219847" style="fill: #bfd7ea; stroke: #bfd7ea"/>
     <use xlink:href="#m39e81d7819" x="160.457972" y="244.242754" style="fill: #bfd7ea; stroke: #bfd7ea"/>
     <use xlink:href="#m39e81d7819" x="246.4364" y="300.494566" style="fill: #bfd7ea; stroke: #bfd7ea"/>
     <use xlink:href="#m39e81d7819" x="332.414829" y="300.494566" style="fill: #bfd7ea; stroke: #bfd7ea"/>
     <use xlink:href="#m39e81d7819" x="418.393257" y="300.494566" style="fill: #bfd7ea; stroke: #bfd7ea"/>
    </g>
   </g>
   <g id="line2d_34">
    <path d="M 83.077386 38.96 
L 91.675229 52.200643 
L 117.468758 124.219847 
L 160.457972 244.233676 
L 246.4364 295.09133 
L 332.414829 295.09133 
L 418.393257 295.09133 
L 590.350114 295.09133 
" clip-path="url(#pdbd7ef9ff3)" style="fill: none; stroke: #ff5a5f; stroke-width: 1.5; stroke-linecap: square"/>
    <defs>
     <path id="m0396e4391f" d="M 0 3 
C 0.795609 3 1.55874 2.683901 2.12132 2.12132 
C 2.683901 1.55874 3 0.795609 3 0 
C 3 -0.795609 2.683901 -1.55874 2.12132 -2.12132 
C 1.55874 -2.683901 0.795609 -3 0 -3 
C -0.795609 -3 -1.55874 -2.683901 -2.12132 -2.12132 
C -2.683901 -1.55874 -3 -0.795609 -3 0 
C -3 0.795609 -2.683901 1.55874 -2.12132 2.12132 
C -1.55874 2.683901 -0.795609 3 0 3 
z
" style="stroke: #ff5a5f"/>
    </defs>
    <g clip-path="url(#pdbd7ef9ff3)">
     <use xlink:href="#m0396e4391f" x="83.077386" y="38.96" style="fill: #ff5a5f; stroke: #ff5a5f"/>
     <use xlink:href="#m0396e4391f" x="91.675229" y="52.200643" style="fill: #ff5a5f; stroke: #ff5a5f"/>
     <use xlink:href="#m0396e4391f" x="117.468758" y="124.219847" style="fill: #ff5a5f; stroke: #ff5a5f"/>
     <use xlink:href="#m0396e4391f" x="160.457972" y="244.233676" style="fill: #ff5a5f; stroke: #ff5a5f"/>
     <use xlink:href="#m0396e4391f" x="246.4364" y="295.09133" style="fill: #ff5a5f; stroke: #ff5a5f"/>
     <use xlink:href="#m0396e4391f" x="332.414829" y="295.09133" style="fill: #ff5a5f; stroke: #ff5a5f"/>
     <use xlink:href="#m0396e4391f" x="418.393257" y="295.09133" style="fill: #ff5a5f; stroke: #ff5a5f"/>
     <use xlink:href="#m0396e4391f" x="590.350114" y="295.09133" style="fill: #ff5a5f; stroke: #ff5a5f"/>
    </g>
   </g>
   <g id="line2d_35">
    <path d="M 83.077386 38.96 
L 91.675229 52.200643 
L 117.468758 124.219847 
L 160.457972 244.225154 
L 246.4364 291.900081 
L 332.414829 291.900081 
L 418.393257 291.900081 
L 590.350114 291.900081 
" clip-path="url(#pdbd7ef9ff3)" style="fill: none; stroke: #c81d25; stroke-width: 1.5; stroke-linecap: square"/>
    <defs>
     <path id="m759a745c74" d="M 0 3 
C 0.795609 3 1.55874 2.683901 2.12132 2.12132 
C 2.683901 1.55874 3 0.795609 3 0 
C 3 -0.795609 2.683901 -1.55874 2.12132 -2.12132 
C 1.55874 -2.683901 0.795609 -3 0 -3 
C -0.795609 -3 -1.55874 -2.683901 -2.12132 -2.12132 
C -2.683901 -1.55874 -3 -0.795609 -3 0 
C -3 0.795609 -2.683901 1.55874 -2.12132 2.12132 
C -1.55874 2.683901 -0.795609 3 0 3 
z
" style="stroke: #c81d25"/>
    </defs>
    <g clip-path="url(#pdbd7ef9ff3)">
     <use xlink:href="#m759a745c74" x="83.077386" y="38.96" style="fill: #c81d25; stroke: #c81d25"/>
     <use xlink:href="#m759a745c74" x="91.675229" y="52.200643" style="fill: #c81d25; stroke: #c81d25"/>
     <use xlink:href="#m759a745c74" x="117.468758" y="124.219847" style="fill: #c81d25; stroke: #c81d25"/>
     <use xlink:href="#m759a745c74" x="160.457972" y="244.225154" style="fill: #c81d25; stroke: #c81d25"/>
     <use xlink:href="#m759a745c74" x="246.4364" y="291.900081" style="fill: #c81d25; stroke: #c81d25"/>
     <use xlink:href="#m759a745c74" x="332.414829" y="291.900081" style="fill: #c81d25; stroke: #c81d25"/>
     <use xlink:href="#m759a745c74" x="418.393257" y="291.900081" style="fill: #c81d25; stroke: #c81d25"/>
     <use xlink:href="#m759a745c74" x="590.350114" y="291.900081" style="fill: #c81d25; stroke: #c81d25"/>
    </g>
   </g>
   <g id="patch_3">
    <path d="M 57.71375 356.48 
L 57.71375 23.84 
" style="fill: none; stroke: #000000; stroke-width: 0.8; stroke-linejoin: miter; stroke-linecap: square"/>
   </g>
   <g id="patch_4">
    <path d="M 615.71375 356.48 
L 615.71375 23.84 
" style="fill: none; stroke: #000000; stroke-width: 0.8; stroke-linejoin: miter; stroke-linecap: square"/>
   </g>
   <g id="patch_5">
    <path d="M 57.71375 356.48 
L 615.71375 356.48 
" style="fill: none; stroke: #000000; stroke-width: 0.8; stroke-linejoin: miter; stroke-linecap: square"/>
   </g>
   <g id="patch_6">
    <path d="M 57.71375 23.84 
L 615.71375 23.84 
" style="fill: none; stroke: #000000; stroke-width: 0.8; stroke-linejoin: miter; stroke-linecap: square"/>
   </g>
   <g id="patch_7">
    <path d="M 246.4364 329.684395 
Q 246.4364 334.523101 246.4364 338.243773 
" style="fill: none; stroke: #d4a00b; stroke-linecap: round"/>
    <path d="M 248.0364 335.043773 
L 246.4364 338.243773 
L 244.8364 335.043773 
" style="fill: none; stroke: #d4a00b; stroke-linecap: round"/>
   </g>
   <g id="text_18">
    <!-- 3.6e-24 -->
    <g transform="translate(231.080775 324.016047) scale(0.08 -0.08)">
     <defs>
      <path id="DejaVuSans-2e" d="M 684 794 
L 1344 794 
L 1344 0 
L 684 0 
L 684 794 
z
" transform="scale(0.015625)"/>
      <path id="DejaVuSans-36" d="M 2113 2584 
Q 1688 2584 1439 2293 
Q 1191 2003 1191 1497 
Q 1191 994 1439 701 
Q 1688 409 2113 409 
Q 2538 409 2786 701 
Q 3034 994 3034 1497 
Q 3034 2003 2786 2293 
Q 2538 2584 2113 2584 
z
M 3366 4563 
L 3366 3988 
Q 3128 4100 2886 4159 
Q 2644 4219 2406 4219 
Q 1781 4219 1451 3797 
Q 1122 3375 1075 2522 
Q 1259 2794 1537 2939 
Q 1816 3084 2150 3084 
Q 2853 3084 3261 2657 
Q 3669 2231 3669 1497 
Q 3669 778 3244 343 
Q 2819 -91 2113 -91 
Q 1303 -91 875 529 
Q 447 1150 447 2328 
Q 447 3434 972 4092 
Q 1497 4750 2381 4750 
Q 2619 4750 2861 4703 
Q 3103 4656 3366 4563 
z
" transform="scale(0.015625)"/>
      <path id="DejaVuSans-2d" d="M 313 2009 
L 1997 2009 
L 1997 1497 
L 313 1497 
L 313 2009 
z
" transform="scale(0.015625)"/>
      <path id="DejaVuSans-34" d="M 2419 4116 
L 825 1625 
L 2419 1625 
L 2419 4116 
z
M 2253 4666 
L 3047 4666 
L 3047 1625 
L 3713 1625 
L 3713 1100 
L 3047 1100 
L 3047 0 
L 2419 0 
L 2419 1100 
L 313 1100 
L 313 1709 
L 2253 4666 
z
" transform="scale(0.015625)"/>
     </defs>
     <use xlink:href="#DejaVuSans-33"/>
     <use xlink:href="#DejaVuSans-2e" x="63.623047"/>
     <use xlink:href="#DejaVuSans-36" x="95.410156"/>
     <use xlink:href="#DejaVuSans-65" x="159.033203"/>
     <use xlink:href="#DejaVuSans-2d" x="220.556641"/>
     <use xlink:href="#DejaVuSans-32" x="256.640625"/>
     <use xlink:href="#DejaVuSans-34" x="320.263672"/>
    </g>
   </g>
   <g id="patch_8">
    <path d="M 332.414829 329.684395 
Q 332.414829 334.523101 332.414829 338.243773 
" style="fill: none; stroke: #d4a00b; stroke-linecap: round"/>
    <path d="M 334.014829 335.043773 
L 332.414829 338.243773 
L 330.814829 335.043773 
" style="fill: none; stroke: #d4a00b; stroke-linecap: round"/>
   </g>
   <g id="text_19">
    <!-- 1.1e-36 -->
    <g transform="translate(317.059204 324.016047) scale(0.08 -0.08)">
     <use xlink:href="#DejaVuSans-31"/>
     <use xlink:href="#DejaVuSans-2e" x="63.623047"/>
     <use xlink:href="#DejaVuSans-31" x="95.410156"/>
     <use xlink:href="#DejaVuSans-65" x="159.033203"/>
     <use xlink:href="#DejaVuSans-2d" x="220.556641"/>
     <use xlink:href="#DejaVuSans-33" x="256.640625"/>
     <use xlink:href="#DejaVuSans-36" x="320.263672"/>
    </g>
   </g>
   <g id="patch_9">
    <path d="M 418.393257 329.684395 
Q 418.393257 334.523101 418.393257 338.243773 
" style="fill: none; stroke: #d4a00b; stroke-linecap: round"/>
    <path d="M 419.993257 335.043773 
L 418.393257 338.243773 
L 416.793257 335.043773 
" style="fill: none; stroke: #d4a00b; stroke-linecap: round"/>
   </g>
   <g id="text_20">
    <!-- 3.6e-49 -->
    <g transform="translate(403.037632 324.016047) scale(0.08 -0.08)">
     <use xlink:href="#DejaVuSans-33"/>
     <use xlink:href="#DejaVuSans-2e" x="63.623047"/>
     <use xlink:href="#DejaVuSans-36" x="95.410156"/>
     <use xlink:href="#DejaVuSans-65" x="159.033203"/>
     <use xlink:href="#DejaVuSans-2d" x="220.556641"/>
     <use xlink:href="#DejaVuSans-34" x="256.640625"/>
     <use xlink:href="#DejaVuSans-39" x="320.263672"/>
    </g>
   </g>
   <g id="patch_10">
    <path d="M 590.350114 329.684395 
Q 590.350114 334.523101 590.350114 338.243773 
" style="fill: none; stroke: #d4a00b; stroke-linecap: round"/>
    <path d="M 591.950114 335.043773 
L 590.350114 338.243773 
L 588.750114 335.043773 
" style="fill: none; stroke: #d4a00b; stroke-linecap: round"/>
   </g>
   <g id="text_21">
    <!-- 3.6e-74 -->
    <g transform="translate(574.994489 324.016047) scale(0.08 -0.08)">
     <use xlink:href="#DejaVuSans-33"/>
     <use xlink:href="#DejaVuSans-2e" x="63.623047"/>
     <use xlink:href="#DejaVuSans-36" x="95.410156"/>
     <use xlink:href="#DejaVuSans-65" x="159.033203"/>
     <use xlink:href="#DejaVuSans-2d" x="220.556641"/>
     <use xlink:href="#DejaVuSans-37" x="256.640625"/>
     <use xlink:href="#DejaVuSans-34" x="320.263672"/>
    </g>
   </g>
   <g id="text_22">
    <!-- $q=$0.25 (gaussian sketching) -->
    <g transform="translate(233.53375 17.84) scale(0.14 -0.14)">
     <defs>
      <path id="DejaVuSans-Oblique-71" d="M 2669 525 
Q 2438 222 2123 65 
Q 1809 -91 1428 -91 
Q 897 -91 595 267 
Q 294 625 294 1253 
Q 294 1759 480 2231 
Q 666 2703 1013 3078 
Q 1238 3322 1530 3453 
Q 1822 3584 2144 3584 
Q 2531 3584 2781 3431 
Q 3031 3278 3144 2969 
L 3244 3494 
L 3822 3494 
L 2888 -1319 
L 2309 -1319 
L 2669 525 
z
M 891 1338 
Q 891 875 1084 633 
Q 1278 391 1644 391 
Q 2188 391 2572 911 
Q 2956 1431 2956 2175 
Q 2956 2625 2757 2864 
Q 2559 3103 2188 3103 
Q 1916 3103 1684 2976 
Q 1453 2850 1281 2606 
Q 1100 2350 995 2006 
Q 891 1663 891 1338 
z
" transform="scale(0.015625)"/>
      <path id="DejaVuSans-3d" d="M 678 2906 
L 4684 2906 
L 4684 2381 
L 678 2381 
L 678 2906 
z
M 678 1631 
L 4684 1631 
L 4684 1100 
L 678 1100 
L 678 1631 
z
" transform="scale(0.015625)"/>
      <path id="DejaVuSans-28" d="M 1984 4856 
Q 1566 4138 1362 3434 
Q 1159 2731 1159 2009 
Q 1159 1288 1364 580 
Q 1569 -128 1984 -844 
L 1484 -844 
Q 1016 -109 783 600 
Q 550 1309 550 2009 
Q 550 2706 781 3412 
Q 1013 4119 1484 4856 
L 1984 4856 
z
" transform="scale(0.015625)"/>
      <path id="DejaVuSans-67" d="M 2906 1791 
Q 2906 2416 2648 2759 
Q 2391 3103 1925 3103 
Q 1463 3103 1205 2759 
Q 947 2416 947 1791 
Q 947 1169 1205 825 
Q 1463 481 1925 481 
Q 2391 481 2648 825 
Q 2906 1169 2906 1791 
z
M 3481 434 
Q 3481 -459 3084 -895 
Q 2688 -1331 1869 -1331 
Q 1566 -1331 1297 -1286 
Q 1028 -1241 775 -1147 
L 775 -588 
Q 1028 -725 1275 -790 
Q 1522 -856 1778 -856 
Q 2344 -856 2625 -561 
Q 2906 -266 2906 331 
L 2906 616 
Q 2728 306 2450 153 
Q 2172 0 1784 0 
Q 1141 0 747 490 
Q 353 981 353 1791 
Q 353 2603 747 3093 
Q 1141 3584 1784 3584 
Q 2172 3584 2450 3431 
Q 2728 3278 2906 2969 
L 2906 3500 
L 3481 3500 
L 3481 434 
z
" transform="scale(0.015625)"/>
      <path id="DejaVuSans-73" d="M 2834 3397 
L 2834 2853 
Q 2591 2978 2328 3040 
Q 2066 3103 1784 3103 
Q 1356 3103 1142 2972 
Q 928 2841 928 2578 
Q 928 2378 1081 2264 
Q 1234 2150 1697 2047 
L 1894 2003 
Q 2506 1872 2764 1633 
Q 3022 1394 3022 966 
Q 3022 478 2636 193 
Q 2250 -91 1575 -91 
Q 1294 -91 989 -36 
Q 684 19 347 128 
L 347 722 
Q 666 556 975 473 
Q 1284 391 1588 391 
Q 1994 391 2212 530 
Q 2431 669 2431 922 
Q 2431 1156 2273 1281 
Q 2116 1406 1581 1522 
L 1381 1569 
Q 847 1681 609 1914 
Q 372 2147 372 2553 
Q 372 3047 722 3315 
Q 1072 3584 1716 3584 
Q 2034 3584 2315 3537 
Q 2597 3491 2834 3397 
z
" transform="scale(0.015625)"/>
      <path id="DejaVuSans-68" d="M 3513 2113 
L 3513 0 
L 2938 0 
L 2938 2094 
Q 2938 2591 2744 2837 
Q 2550 3084 2163 3084 
Q 1697 3084 1428 2787 
Q 1159 2491 1159 1978 
L 1159 0 
L 581 0 
L 581 4863 
L 1159 4863 
L 1159 2956 
Q 1366 3272 1645 3428 
Q 1925 3584 2291 3584 
Q 2894 3584 3203 3211 
Q 3513 2838 3513 2113 
z
" transform="scale(0.015625)"/>
      <path id="DejaVuSans-29" d="M 513 4856 
L 1013 4856 
Q 1481 4119 1714 3412 
Q 1947 2706 1947 2009 
Q 1947 1309 1714 600 
Q 1481 -109 1013 -844 
L 513 -844 
Q 928 -128 1133 580 
Q 1338 1288 1338 2009 
Q 1338 2731 1133 3434 
Q 928 4138 513 4856 
z
" transform="scale(0.015625)"/>
     </defs>
     <use xlink:href="#DejaVuSans-Oblique-71" transform="translate(0 0.015625)"/>
     <use xlink:href="#DejaVuSans-3d" transform="translate(82.958984 0.015625)"/>
     <use xlink:href="#DejaVuSans-30" transform="translate(186.230469 0.015625)"/>
     <use xlink:href="#DejaVuSans-2e" transform="translate(249.853516 0.015625)"/>
     <use xlink:href="#DejaVuSans-32" transform="translate(276.140625 0.015625)"/>
     <use xlink:href="#DejaVuSans-35" transform="translate(339.763672 0.015625)"/>
     <use xlink:href="#DejaVuSans-20" transform="translate(403.386719 0.015625)"/>
     <use xlink:href="#DejaVuSans-28" transform="translate(435.173828 0.015625)"/>
     <use xlink:href="#DejaVuSans-67" transform="translate(474.1875 0.015625)"/>
     <use xlink:href="#DejaVuSans-61" transform="translate(537.664062 0.015625)"/>
     <use xlink:href="#DejaVuSans-75" transform="translate(598.943359 0.015625)"/>
     <use xlink:href="#DejaVuSans-73" transform="translate(662.322266 0.015625)"/>
     <use xlink:href="#DejaVuSans-73" transform="translate(714.421875 0.015625)"/>
     <use xlink:href="#DejaVuSans-69" transform="translate(766.521484 0.015625)"/>
     <use xlink:href="#DejaVuSans-61" transform="translate(794.304688 0.015625)"/>
     <use xlink:href="#DejaVuSans-6e" transform="translate(855.583984 0.015625)"/>
     <use xlink:href="#DejaVuSans-20" transform="translate(918.962891 0.015625)"/>
     <use xlink:href="#DejaVuSans-73" transform="translate(950.75 0.015625)"/>
     <use xlink:href="#DejaVuSans-6b" transform="translate(1002.849609 0.015625)"/>
     <use xlink:href="#DejaVuSans-65" transform="translate(1060.759766 0.015625)"/>
     <use xlink:href="#DejaVuSans-74" transform="translate(1122.283203 0.015625)"/>
     <use xlink:href="#DejaVuSans-63" transform="translate(1161.492188 0.015625)"/>
     <use xlink:href="#DejaVuSans-68" transform="translate(1216.472656 0.015625)"/>
     <use xlink:href="#DejaVuSans-69" transform="translate(1279.851562 0.015625)"/>
     <use xlink:href="#DejaVuSans-6e" transform="translate(1307.634766 0.015625)"/>
     <use xlink:href="#DejaVuSans-67" transform="translate(1371.013672 0.015625)"/>
     <use xlink:href="#DejaVuSans-29" transform="translate(1434.490234 0.015625)"/>
    </g>
   </g>
   <g id="PathCollection_5">
    <g clip-path="url(#pdbd7ef9ff3)">
     <use xlink:href="#m05f807bff0" x="83.077386" y="38.96" style="fill: #d4a00b; stroke: #d4a00b; stroke-width: 1.5"/>
    </g>
   </g>
   <g id="PathCollection_6">
    <g clip-path="url(#pdbd7ef9ff3)">
     <use xlink:href="#m05f807bff0" x="91.675229" y="52.200643" style="fill: #d4a00b; stroke: #d4a00b; stroke-width: 1.5"/>
    </g>
   </g>
   <g id="PathCollection_7">
    <g clip-path="url(#pdbd7ef9ff3)">
     <use xlink:href="#m05f807bff0" x="117.468758" y="124.219847" style="fill: #d4a00b; stroke: #d4a00b; stroke-width: 1.5"/>
    </g>
   </g>
   <g id="PathCollection_8">
    <g clip-path="url(#pdbd7ef9ff3)">
     <use xlink:href="#m05f807bff0" x="160.457972" y="244.251854" style="fill: #d4a00b; stroke: #d4a00b; stroke-width: 1.5"/>
    </g>
   </g>
   <g id="legend_1">
    <g id="patch_11">
     <path d="M 511.518438 119.90875 
L 608.71375 119.90875 
Q 610.71375 119.90875 610.71375 117.90875 
L 610.71375 30.84 
Q 610.71375 28.84 608.71375 28.84 
L 511.518438 28.84 
Q 509.518438 28.84 509.518438 30.84 
L 509.518438 117.90875 
Q 509.518438 119.90875 511.518438 119.90875 
z
" style="fill: #ffffff; opacity: 0.8; stroke: #cccccc; stroke-linejoin: miter"/>
    </g>
    <g id="line2d_36">
     <path d="M 513.518438 36.938438 
L 523.518438 36.938438 
L 533.518438 36.938438 
" style="fill: none; stroke: #0b3954; stroke-width: 1.5; stroke-linecap: square"/>
     <g>
      <use xlink:href="#m494c8ea5f3" x="523.518438" y="36.938438" style="fill: #0b3954; stroke: #0b3954"/>
     </g>
    </g>
    <g id="text_23">
     <!-- $l=$50 -->
     <g transform="translate(541.518438 40.438438) scale(0.1 -0.1)">
      <defs>
       <path id="DejaVuSans-Oblique-6c" d="M 1172 4863 
L 1747 4863 
L 800 0 
L 225 0 
L 1172 4863 
z
" transform="scale(0.015625)"/>
      </defs>
      <use xlink:href="#DejaVuSans-Oblique-6c" transform="translate(0 0.015625)"/>
      <use xlink:href="#DejaVuSans-3d" transform="translate(47.265625 0.015625)"/>
      <use xlink:href="#DejaVuSans-35" transform="translate(150.537109 0.015625)"/>
      <use xlink:href="#DejaVuSans-30" transform="translate(214.160156 0.015625)"/>
     </g>
    </g>
    <g id="line2d_37">
     <path d="M 513.518438 51.616563 
L 523.518438 51.616563 
L 533.518438 51.616563 
" style="fill: none; stroke: #087e8b; stroke-width: 1.5; stroke-linecap: square"/>
     <g>
      <use xlink:href="#m475d6a78ab" x="523.518438" y="51.616563" style="fill: #087e8b; stroke: #087e8b"/>
     </g>
    </g>
    <g id="text_24">
     <!-- $l=$150 -->
     <g transform="translate(541.518438 55.116563) scale(0.1 -0.1)">
      <use xlink:href="#DejaVuSans-Oblique-6c" transform="translate(0 0.015625)"/>
      <use xlink:href="#DejaVuSans-3d" transform="translate(47.265625 0.015625)"/>
      <use xlink:href="#DejaVuSans-31" transform="translate(150.537109 0.015625)"/>
      <use xlink:href="#DejaVuSans-35" transform="translate(214.160156 0.015625)"/>
      <use xlink:href="#DejaVuSans-30" transform="translate(277.783203 0.015625)"/>
     </g>
    </g>
    <g id="line2d_38">
     <path d="M 513.518438 66.294688 
L 523.518438 66.294688 
L 533.518438 66.294688 
" style="fill: none; stroke: #bfd7ea; stroke-width: 1.5; stroke-linecap: square"/>
     <g>
      <use xlink:href="#m39e81d7819" x="523.518438" y="66.294688" style="fill: #bfd7ea; stroke: #bfd7ea"/>
     </g>
    </g>
    <g id="text_25">
     <!-- $l=$250 -->
     <g transform="translate(541.518438 69.794688) scale(0.1 -0.1)">
      <use xlink:href="#DejaVuSans-Oblique-6c" transform="translate(0 0.015625)"/>
      <use xlink:href="#DejaVuSans-3d" transform="translate(47.265625 0.015625)"/>
      <use xlink:href="#DejaVuSans-32" transform="translate(150.537109 0.015625)"/>
      <use xlink:href="#DejaVuSans-35" transform="translate(214.160156 0.015625)"/>
      <use xlink:href="#DejaVuSans-30" transform="translate(277.783203 0.015625)"/>
     </g>
    </g>
    <g id="line2d_39">
     <path d="M 513.518438 80.972813 
L 523.518438 80.972813 
L 533.518438 80.972813 
" style="fill: none; stroke: #ff5a5f; stroke-width: 1.5; stroke-linecap: square"/>
     <g>
      <use xlink:href="#m0396e4391f" x="523.518438" y="80.972813" style="fill: #ff5a5f; stroke: #ff5a5f"/>
     </g>
    </g>
    <g id="text_26">
     <!-- $l=$500 -->
     <g transform="translate(541.518438 84.472813) scale(0.1 -0.1)">
      <use xlink:href="#DejaVuSans-Oblique-6c" transform="translate(0 0.015625)"/>
      <use xlink:href="#DejaVuSans-3d" transform="translate(47.265625 0.015625)"/>
      <use xlink:href="#DejaVuSans-35" transform="translate(150.537109 0.015625)"/>
      <use xlink:href="#DejaVuSans-30" transform="translate(214.160156 0.015625)"/>
      <use xlink:href="#DejaVuSans-30" transform="translate(277.783203 0.015625)"/>
     </g>
    </g>
    <g id="line2d_40">
     <path d="M 513.518438 95.650937 
L 523.518438 95.650937 
L 533.518438 95.650937 
" style="fill: none; stroke: #c81d25; stroke-width: 1.5; stroke-linecap: square"/>
     <g>
      <use xlink:href="#m759a745c74" x="523.518438" y="95.650937" style="fill: #c81d25; stroke: #c81d25"/>
     </g>
    </g>
    <g id="text_27">
     <!-- $l=$700 -->
     <g transform="translate(541.518438 99.150937) scale(0.1 -0.1)">
      <use xlink:href="#DejaVuSans-Oblique-6c" transform="translate(0 0.015625)"/>
      <use xlink:href="#DejaVuSans-3d" transform="translate(47.265625 0.015625)"/>
      <use xlink:href="#DejaVuSans-37" transform="translate(150.537109 0.015625)"/>
      <use xlink:href="#DejaVuSans-30" transform="translate(214.160156 0.015625)"/>
      <use xlink:href="#DejaVuSans-30" transform="translate(277.783203 0.015625)"/>
     </g>
    </g>
    <g id="PathCollection_9">
     <g>
      <use xlink:href="#m05f807bff0" x="523.518438" y="111.204063" style="fill: #d4a00b; stroke: #d4a00b; stroke-width: 1.5"/>
     </g>
    </g>
    <g id="text_28">
     <!-- optimal error -->
     <g transform="translate(541.518438 113.829063) scale(0.1 -0.1)">
      <use xlink:href="#DejaVuSans-6f"/>
      <use xlink:href="#DejaVuSans-70" x="61.181641"/>
      <use xlink:href="#DejaVuSans-74" x="124.658203"/>
      <use xlink:href="#DejaVuSans-69" x="163.867188"/>
      <use xlink:href="#DejaVuSans-6d" x="191.650391"/>
      <use xlink:href="#DejaVuSans-61" x="289.0625"/>
      <use xlink:href="#DejaVuSans-6c" x="350.341797"/>
      <use xlink:href="#DejaVuSans-20" x="378.125"/>
      <use xlink:href="#DejaVuSans-65" x="409.912109"/>
      <use xlink:href="#DejaVuSans-72" x="471.435547"/>
      <use xlink:href="#DejaVuSans-72" x="510.798828"/>
      <use xlink:href="#DejaVuSans-6f" x="549.662109"/>
      <use xlink:href="#DejaVuSans-72" x="610.84375"/>
     </g>
    </g>
   </g>
  </g>
 </g>
 <defs>
  <clipPath id="pdbd7ef9ff3">
   <rect x="57.71375" y="23.84" width="558" height="332.64"/>
  </clipPath>
 </defs>
</svg>
